REM DIRINDEX 1\2,1\3,1\4,1\5\6,1\5\7,1\8
REM DIRNAME cjc115,folder01,folder02,folder03,folder04,folder05,folder06,folder07
TITLE ""
FILE "020 【020】Unit2 (0217 artifact_0228 deceased).mp3" MP3
  TRACK 01 AUDIO
    TITLE "0:"
    INDEX 01 00:00:00
  TRACK 02 AUDIO
    TITLE "8:cjc115_0765"
    INDEX 01 00:00:07
  TRACK 03 AUDIO
    TITLE "0:"
    INDEX 01 00:01:48
  TRACK 04 AUDIO
    TITLE "2:cjc115_0766"
    INDEX 01 00:02:20
  TRACK 05 AUDIO
    TITLE "0:"
    INDEX 01 00:03:45
  TRACK 06 AUDIO
    TITLE "3:cjc115_0767"
    INDEX 01 00:03:55
  TRACK 07 AUDIO
    TITLE "0:"
    INDEX 01 00:05:24
  TRACK 08 AUDIO
    TITLE "4:cjc115_0768"
    INDEX 01 00:05:42
  TRACK 09 AUDIO
    TITLE "0:"
    INDEX 01 00:10:23
  TRACK 10 AUDIO
    TITLE "2:cjc115_0769"
    INDEX 01 00:11:29
  TRACK 11 AUDIO
    TITLE "0:"
    INDEX 01 00:12:60
  TRACK 12 AUDIO
    TITLE "3:cjc115_0770"
    INDEX 01 00:12:63
  TRACK 13 AUDIO
    TITLE "0:"
    INDEX 01 00:14:15
  TRACK 14 AUDIO
    TITLE "4:cjc115_0771"
    INDEX 01 00:14:21
  TRACK 15 AUDIO
    TITLE "0:"
    INDEX 01 00:19:54
  TRACK 16 AUDIO
    TITLE "2:cjc115_0772"
    INDEX 01 00:20:63
  TRACK 17 AUDIO
    TITLE "0:"
    INDEX 01 00:22:03
  TRACK 18 AUDIO
    TITLE "3:cjc115_0773"
    INDEX 01 00:22:13
  TRACK 19 AUDIO
    TITLE "0:"
    INDEX 01 00:23:34
  TRACK 20 AUDIO
    TITLE "4:cjc115_0774"
    INDEX 01 00:23:42
  TRACK 21 AUDIO
    TITLE "0:"
    INDEX 01 00:26:30
  TRACK 22 AUDIO
    TITLE "2:cjc115_0775"
    INDEX 01 00:27:39
  TRACK 23 AUDIO
    TITLE "0:"
    INDEX 01 00:28:51
  TRACK 24 AUDIO
    TITLE "3:cjc115_0776"
    INDEX 01 00:28:60
  TRACK 25 AUDIO
    TITLE "0:"
    INDEX 01 00:30:57
  TRACK 26 AUDIO
    TITLE "4:cjc115_0777"
    INDEX 01 00:30:65
  TRACK 27 AUDIO
    TITLE "0:"
    INDEX 01 00:35:39
  TRACK 28 AUDIO
    TITLE "2:cjc115_0778"
    INDEX 01 00:36:48
  TRACK 29 AUDIO
    TITLE "0:"
    INDEX 01 00:38:10
  TRACK 30 AUDIO
    TITLE "3:cjc115_0779"
    INDEX 01 00:38:20
  TRACK 31 AUDIO
    TITLE "0:"
    INDEX 01 00:40:30
  TRACK 32 AUDIO
    TITLE "4:cjc115_0780"
    INDEX 01 00:40:36
  TRACK 33 AUDIO
    TITLE "0:"
    INDEX 01 00:44:42
  TRACK 34 AUDIO
    TITLE "2:cjc115_0781"
    INDEX 01 00:45:49
  TRACK 35 AUDIO
    TITLE "0:"
    INDEX 01 00:47:09
  TRACK 36 AUDIO
    TITLE "3:cjc115_0782"
    INDEX 01 00:47:30
  TRACK 37 AUDIO
    TITLE "0:"
    INDEX 01 00:49:37
  TRACK 38 AUDIO
    TITLE "4:cjc115_0783"
    INDEX 01 00:49:47
  TRACK 39 AUDIO
    TITLE "0:"
    INDEX 01 00:53:39
  TRACK 40 AUDIO
    TITLE "2:cjc115_0784"
    INDEX 01 00:54:50
  TRACK 41 AUDIO
    TITLE "0:"
    INDEX 01 00:56:06
  TRACK 42 AUDIO
    TITLE "3:cjc115_0785"
    INDEX 01 00:56:16
  TRACK 43 AUDIO
    TITLE "0:"
    INDEX 01 00:58:36
  TRACK 44 AUDIO
    TITLE "4:cjc115_0786"
    INDEX 01 00:58:46
  TRACK 45 AUDIO
    TITLE "0:"
    INDEX 01 01:04:05
  TRACK 46 AUDIO
    TITLE "2:cjc115_0787"
    INDEX 01 01:05:15
  TRACK 47 AUDIO
    TITLE "0:"
    INDEX 01 01:06:42
  TRACK 48 AUDIO
    TITLE "3:cjc115_0788"
    INDEX 01 01:06:45
  TRACK 49 AUDIO
    TITLE "0:"
    INDEX 01 01:07:63
  TRACK 50 AUDIO
    TITLE "4:cjc115_0789"
    INDEX 01 01:07:70
  TRACK 51 AUDIO
    TITLE "0:"
    INDEX 01 01:11:31
  TRACK 52 AUDIO
    TITLE "2:cjc115_0790"
    INDEX 01 01:12:38
  TRACK 53 AUDIO
    TITLE "0:"
    INDEX 01 01:13:69
  TRACK 54 AUDIO
    TITLE "3:cjc115_0791"
    INDEX 01 01:13:73
  TRACK 55 AUDIO
    TITLE "0:"
    INDEX 01 01:15:15
  TRACK 56 AUDIO
    TITLE "4:cjc115_0792"
    INDEX 01 01:15:25
  TRACK 57 AUDIO
    TITLE "0:"
    INDEX 01 01:19:46
  TRACK 58 AUDIO
    TITLE "2:cjc115_0793"
    INDEX 01 01:20:53
  TRACK 59 AUDIO
    TITLE "0:"
    INDEX 01 01:22:09
  TRACK 60 AUDIO
    TITLE "3:cjc115_0794"
    INDEX 01 01:22:17
  TRACK 61 AUDIO
    TITLE "0:"
    INDEX 01 01:23:28
  TRACK 62 AUDIO
    TITLE "4:cjc115_0795"
    INDEX 01 01:23:40
  TRACK 63 AUDIO
    TITLE "0:"
    INDEX 01 01:26:54
  TRACK 64 AUDIO
    TITLE "2:cjc115_0796"
    INDEX 01 01:27:61
  TRACK 65 AUDIO
    TITLE "0:"
    INDEX 01 01:29:13
  TRACK 66 AUDIO
    TITLE "3:cjc115_0797"
    INDEX 01 01:29:19
  TRACK 67 AUDIO
    TITLE "0:"
    INDEX 01 01:31:10
  TRACK 68 AUDIO
    TITLE "4:cjc115_0798"
    INDEX 01 01:31:18
  TRACK 69 AUDIO
    TITLE "0:"
    INDEX 01 01:35:57
  TRACK 70 AUDIO
    TITLE "2:cjc115_0799"
    INDEX 01 01:36:64
  TRACK 71 AUDIO
    TITLE "0:"
    INDEX 01 01:38:12
  TRACK 72 AUDIO
    TITLE "3:cjc115_0800"
    INDEX 01 01:38:22
  TRACK 73 AUDIO
    TITLE "0:"
    INDEX 01 01:39:37
  TRACK 74 AUDIO
    TITLE "4:cjc115_0801"
    INDEX 01 01:39:41
  TRACK 75 AUDIO
    TITLE "0:"
    INDEX 01 01:43:33
